{
  "asset": {
    "version": "2.0",
    "generator": "space_glider_v4"
  },
  "scenes": [
    {
      "nodes": [
        5
      ]
    }
  ],
  "scene": 0,
  "nodes": [
    {
      "name": "Fuselage",
      "mesh": 0
    },
    {
      "name": "WingRight",
      "mesh": 1
    },
    {
      "name": "WingLeft",
      "mesh": 2
    },
    {
      "name": "ThrusterLeft",
      "mesh": 3
    },
    {
      "name": "ThrusterRight",
      "mesh": 4
    },
    {
      "name": "SpaceGlider",
      "children": [
        0,
        1,
        2,
        3,
        4
      ]
    }
  ],
  "meshes": [
    {
      "name": "Fuselage",
      "primitives": [
        {
          "attributes": {
            "POSITION": 0
          },
          "indices": 1,
          "material": 0
        }
      ]
    },
    {
      "name": "WingRight",
      "primitives": [
        {
          "attributes": {
            "POSITION": 2
          },
          "indices": 3,
          "material": 0
        }
      ]
    },
    {
      "name": "WingLeft",
      "primitives": [
        {
          "attributes": {
            "POSITION": 4
          },
          "indices": 5,
          "material": 0
        }
      ]
    },
    {
      "name": "ThrusterLeft",
      "primitives": [
        {
          "attributes": {
            "POSITION": 6
          },
          "indices": 7,
          "material": 1
        }
      ]
    },
    {
      "name": "ThrusterRight",
      "primitives": [
        {
          "attributes": {
            "POSITION": 8
          },
          "indices": 9,
          "material": 2
        }
      ]
    }
  ],
  "materials": [
    {
      "name": "Hull",
      "pbrMetallicRoughness": {
        "baseColorTexture": {
          "index": 0
        },
        "metallicRoughnessTexture": {
          "index": 1
        }
      },
      "normalTexture": {
        "index": 2
      },
      "emissiveTexture": {
        "index": 3
      },
      "emissiveFactor": [
        0,
        0,
        0
      ],
      "doubleSided": true
    },
    {
      "name": "ThrusterLeftMat",
      "pbrMetallicRoughness": {
        "baseColorTexture": {
          "index": 4
        },
        "metallicRoughnessTexture": {
          "index": 5
        }
      },
      "normalTexture": {
        "index": 6
      },
      "emissiveTexture": {
        "index": 7
      },
      "emissiveFactor": [
        0.05,
        0.2,
        0.6
      ],
      "doubleSided": true
    },
    {
      "name": "ThrusterRightMat",
      "pbrMetallicRoughness": {
        "baseColorTexture": {
          "index": 4
        },
        "metallicRoughnessTexture": {
          "index": 5
        }
      },
      "normalTexture": {
        "index": 6
      },
      "emissiveTexture": {
        "index": 7
      },
      "emissiveFactor": [
        0.05,
        0.2,
        0.6
      ],
      "doubleSided": true
    }
  ],
  "textures": [
    {
      "source": 0
    },
    {
      "source": 1
    },
    {
      "source": 2
    },
    {
      "source": 3
    },
    {
      "source": 4
    },
    {
      "source": 5
    },
    {
      "source": 6
    },
    {
      "source": 7
    }
  ],
  "images": [
    {
      "uri": "baseColor.png"
    },
    {
      "uri": "metallicRoughness.png"
    },
    {
      "uri": "normal.png"
    },
    {
      "uri": "emissive.png"
    },
    {
      "uri": "thruster_baseColor.png"
    },
    {
      "uri": "thruster_metallicRoughness.png"
    },
    {
      "uri": "thruster_normal.png"
    },
    {
      "uri": "thruster_emissive.png"
    }
  ],
  "buffers": [
    {
      "uri": "space_glider_v4.bin",
      "byteLength": 35052
    }
  ],
  "bufferViews": [
    {
      "buffer": 0,
      "byteOffset": 0,
      "byteLength": 14700,
      "target": 34962
    },
    {
      "buffer": 0,
      "byteOffset": 14700,
      "byteLength": 13824,
      "target": 34963
    },
    {
      "buffer": 0,
      "byteOffset": 28524,
      "byteLength": 96,
      "target": 34962
    },
    {
      "buffer": 0,
      "byteOffset": 28620,
      "byteLength": 72,
      "target": 34963
    },
    {
      "buffer": 0,
      "byteOffset": 28692,
      "byteLength": 96,
      "target": 34962
    },
    {
      "buffer": 0,
      "byteOffset": 28788,
      "byteLength": 72,
      "target": 34963
    },
    {
      "buffer": 0,
      "byteOffset": 28860,
      "byteLength": 2328,
      "target": 34962
    },
    {
      "buffer": 0,
      "byteOffset": 31188,
      "byteLength": 768,
      "target": 34963
    },
    {
      "buffer": 0,
      "byteOffset": 31956,
      "byteLength": 2328,
      "target": 34962
    },
    {
      "buffer": 0,
      "byteOffset": 34284,
      "byteLength": 768,
      "target": 34963
    }
  ],
  "accessors": [
    {
      "bufferView": 0,
      "componentType": 5126,
      "count": 1225,
      "type": "VEC3",
      "min": [
        -0.8,
        -0.6,
        -2.5
      ],
      "max": [
        0.8,
        0.6,
        2.5
      ]
    },
    {
      "bufferView": 1,
      "componentType": 5123,
      "count": 6912,
      "type": "SCALAR"
    },
    {
      "bufferView": 2,
      "componentType": 5126,
      "count": 8,
      "type": "VEC3",
      "min": [
        0,
        -0.025,
        -0.8999999999999999
      ],
      "max": [
        4.0,
        0.025,
        1.3
      ]
    },
    {
      "bufferView": 3,
      "componentType": 5123,
      "count": 36,
      "type": "SCALAR"
    },
    {
      "bufferView": 4,
      "componentType": 5126,
      "count": 8,
      "type": "VEC3",
      "min": [
        -4.0,
        -0.025,
        -0.8999999999999999
      ],
      "max": [
        0,
        0.025,
        1.3
      ]
    },
    {
      "bufferView": 5,
      "componentType": 5123,
      "count": 36,
      "type": "SCALAR"
    },
    {
      "bufferView": 6,
      "componentType": 5126,
      "count": 194,
      "type": "VEC3",
      "min": [
        -1.0499999999999998,
        -0.35,
        -0.45
      ],
      "max": [
        -0.35,
        0.35,
        0.45
      ]
    },
    {
      "bufferView": 7,
      "componentType": 5123,
      "count": 384,
      "type": "SCALAR"
    },
    {
      "bufferView": 8,
      "componentType": 5126,
      "count": 194,
      "type": "VEC3",
      "min": [
        0.35,
        -0.35,
        -0.45
      ],
      "max": [
        1.0499999999999998,
        0.35,
        0.45
      ]
    },
    {
      "bufferView": 9,
      "componentType": 5123,
      "count": 384,
      "type": "SCALAR"
    }
  ]
}